<mxfile host="Electron" modified="2024-02-21T15:14:19.157Z" agent="Mozilla/5.0 (Windows NT 10.0; Win64; x64) AppleWebKit/537.36 (KHTML, like Gecko) draw.io/23.1.5 Chrome/120.0.6099.109 Electron/28.1.0 Safari/537.36" etag="tdVfbP--M6MN9LwUkHzO" version="23.1.5" type="device">
  <diagram name="Page-1" id="vrx5d8eAQLCwhga_nXzC">
    <mxGraphModel dx="1687" dy="984" grid="1" gridSize="10" guides="1" tooltips="1" connect="1" arrows="1" fold="1" page="1" pageScale="1" pageWidth="850" pageHeight="1100" math="0" shadow="0">
      <root>
        <mxCell id="0" />
        <mxCell id="1" parent="0" />
        <mxCell id="z4hqeZz_eeacdp8XZCUV-13" style="edgeStyle=orthogonalEdgeStyle;rounded=0;orthogonalLoop=1;jettySize=auto;html=1;exitX=1;exitY=0.25;exitDx=0;exitDy=0;entryX=0;entryY=0.5;entryDx=0;entryDy=0;" edge="1" parent="1" source="dQhnRLkJOMdwWzvftfXV-1" target="dQhnRLkJOMdwWzvftfXV-10">
          <mxGeometry relative="1" as="geometry" />
        </mxCell>
        <mxCell id="z4hqeZz_eeacdp8XZCUV-14" style="edgeStyle=orthogonalEdgeStyle;rounded=0;orthogonalLoop=1;jettySize=auto;html=1;exitX=1;exitY=0.75;exitDx=0;exitDy=0;entryX=0;entryY=0.5;entryDx=0;entryDy=0;" edge="1" parent="1" source="dQhnRLkJOMdwWzvftfXV-1" target="dQhnRLkJOMdwWzvftfXV-9">
          <mxGeometry relative="1" as="geometry" />
        </mxCell>
        <mxCell id="dQhnRLkJOMdwWzvftfXV-1" value="Main Menu" style="rounded=1;whiteSpace=wrap;html=1;" parent="1" vertex="1">
          <mxGeometry x="340" y="160" width="120" height="60" as="geometry" />
        </mxCell>
        <mxCell id="z4hqeZz_eeacdp8XZCUV-2" style="edgeStyle=orthogonalEdgeStyle;rounded=0;orthogonalLoop=1;jettySize=auto;html=1;entryX=0.25;entryY=0;entryDx=0;entryDy=0;strokeWidth=3;fillColor=#dae8fc;strokeColor=#6c8ebf;" edge="1" parent="1" target="dQhnRLkJOMdwWzvftfXV-76">
          <mxGeometry relative="1" as="geometry">
            <mxPoint x="430" y="220" as="sourcePoint" />
            <Array as="points" />
          </mxGeometry>
        </mxCell>
        <mxCell id="z4hqeZz_eeacdp8XZCUV-4" value="Online" style="edgeLabel;html=1;align=center;verticalAlign=middle;resizable=0;points=[];" vertex="1" connectable="0" parent="z4hqeZz_eeacdp8XZCUV-2">
          <mxGeometry x="0.0963" y="1" relative="1" as="geometry">
            <mxPoint x="-1" y="-31" as="offset" />
          </mxGeometry>
        </mxCell>
        <mxCell id="z4hqeZz_eeacdp8XZCUV-7" style="edgeStyle=orthogonalEdgeStyle;rounded=0;orthogonalLoop=1;jettySize=auto;html=1;exitX=0;exitY=0.5;exitDx=0;exitDy=0;entryX=0.25;entryY=0;entryDx=0;entryDy=0;strokeWidth=3;fillColor=#f8cecc;strokeColor=#b85450;" edge="1" parent="1" source="dQhnRLkJOMdwWzvftfXV-1" target="dQhnRLkJOMdwWzvftfXV-95">
          <mxGeometry relative="1" as="geometry">
            <mxPoint x="330" y="270" as="sourcePoint" />
            <Array as="points">
              <mxPoint x="290" y="190" />
              <mxPoint x="290" y="370" />
              <mxPoint x="330" y="370" />
            </Array>
          </mxGeometry>
        </mxCell>
        <mxCell id="z4hqeZz_eeacdp8XZCUV-8" value="Local" style="edgeLabel;html=1;align=center;verticalAlign=middle;resizable=0;points=[];" vertex="1" connectable="0" parent="z4hqeZz_eeacdp8XZCUV-7">
          <mxGeometry x="-0.0444" y="-1" relative="1" as="geometry">
            <mxPoint x="1" y="-52" as="offset" />
          </mxGeometry>
        </mxCell>
        <mxCell id="dQhnRLkJOMdwWzvftfXV-9" value="Settings" style="rounded=1;whiteSpace=wrap;html=1;" parent="1" vertex="1">
          <mxGeometry x="540" y="200" width="120" height="60" as="geometry" />
        </mxCell>
        <mxCell id="dQhnRLkJOMdwWzvftfXV-10" value="About" style="rounded=1;whiteSpace=wrap;html=1;" parent="1" vertex="1">
          <mxGeometry x="540" y="120" width="120" height="60" as="geometry" />
        </mxCell>
        <mxCell id="dQhnRLkJOMdwWzvftfXV-33" value="Game Lobby" style="rounded=1;whiteSpace=wrap;html=1;" parent="1" vertex="1">
          <mxGeometry x="300" y="670" width="120" height="60" as="geometry" />
        </mxCell>
        <mxCell id="dQhnRLkJOMdwWzvftfXV-64" value="&lt;b&gt;Courier&lt;/b&gt;" style="swimlane;fontStyle=0;childLayout=stackLayout;horizontal=1;startSize=30;horizontalStack=0;resizeParent=1;resizeParentMax=0;resizeLast=0;collapsible=1;marginBottom=0;whiteSpace=wrap;html=1;" parent="1" vertex="1">
          <mxGeometry x="20" y="550" width="140" height="120" as="geometry">
            <mxRectangle x="20" y="230" width="80" height="30" as="alternateBounds" />
          </mxGeometry>
        </mxCell>
        <mxCell id="dQhnRLkJOMdwWzvftfXV-65" value="&lt;b&gt;Connection Mode&lt;br&gt;&lt;/b&gt;boolean" style="text;strokeColor=none;fillColor=none;align=left;verticalAlign=middle;spacingLeft=4;spacingRight=4;overflow=hidden;points=[[0,0.5],[1,0.5]];portConstraint=eastwest;rotatable=0;whiteSpace=wrap;html=1;" parent="dQhnRLkJOMdwWzvftfXV-64" vertex="1">
          <mxGeometry y="30" width="140" height="50" as="geometry" />
        </mxCell>
        <mxCell id="dQhnRLkJOMdwWzvftfXV-66" value="&lt;b&gt;Gamemode Type&lt;/b&gt;&lt;br&gt;Enum" style="text;strokeColor=none;fillColor=none;align=left;verticalAlign=middle;spacingLeft=4;spacingRight=4;overflow=hidden;points=[[0,0.5],[1,0.5]];portConstraint=eastwest;rotatable=0;whiteSpace=wrap;html=1;" parent="dQhnRLkJOMdwWzvftfXV-64" vertex="1">
          <mxGeometry y="80" width="140" height="40" as="geometry" />
        </mxCell>
        <mxCell id="dQhnRLkJOMdwWzvftfXV-68" value="&lt;h1&gt;Courier&lt;/h1&gt;&lt;div&gt;The Courier will be traveling with the user across scenes and collecting information.&lt;/div&gt;&lt;div&gt;&lt;br&gt;&lt;/div&gt;&lt;div&gt;At the final scene, the Nuntius will instruct the lobby on how to set itself up&lt;/div&gt;" style="text;html=1;spacing=5;spacingTop=-20;whiteSpace=wrap;overflow=hidden;rounded=0;" parent="1" vertex="1">
          <mxGeometry x="20" y="390" width="190" height="150" as="geometry" />
        </mxCell>
        <mxCell id="dQhnRLkJOMdwWzvftfXV-81" style="edgeStyle=orthogonalEdgeStyle;rounded=0;orthogonalLoop=1;jettySize=auto;html=1;exitX=1;exitY=0.5;exitDx=0;exitDy=0;fillColor=#dae8fc;strokeColor=#6c8ebf;strokeWidth=3;entryX=1;entryY=0.5;entryDx=0;entryDy=0;" parent="1" source="dQhnRLkJOMdwWzvftfXV-76" target="dQhnRLkJOMdwWzvftfXV-33" edge="1">
          <mxGeometry relative="1" as="geometry">
            <mxPoint x="730" y="680" as="targetPoint" />
            <Array as="points">
              <mxPoint x="580" y="370" />
              <mxPoint x="580" y="700" />
            </Array>
          </mxGeometry>
        </mxCell>
        <mxCell id="z4hqeZz_eeacdp8XZCUV-9" value="Join" style="edgeLabel;html=1;align=center;verticalAlign=middle;resizable=0;points=[];" vertex="1" connectable="0" parent="dQhnRLkJOMdwWzvftfXV-81">
          <mxGeometry x="-0.2727" y="-1" relative="1" as="geometry">
            <mxPoint as="offset" />
          </mxGeometry>
        </mxCell>
        <mxCell id="dQhnRLkJOMdwWzvftfXV-96" style="edgeStyle=orthogonalEdgeStyle;rounded=0;orthogonalLoop=1;jettySize=auto;html=1;exitX=0;exitY=0.5;exitDx=0;exitDy=0;entryX=0.67;entryY=0.013;entryDx=0;entryDy=0;strokeWidth=3;fillColor=#dae8fc;strokeColor=#6c8ebf;entryPerimeter=0;" parent="1" source="dQhnRLkJOMdwWzvftfXV-76" target="dQhnRLkJOMdwWzvftfXV-95" edge="1">
          <mxGeometry relative="1" as="geometry">
            <Array as="points">
              <mxPoint x="380" y="370" />
              <mxPoint x="380" y="451" />
            </Array>
          </mxGeometry>
        </mxCell>
        <mxCell id="z4hqeZz_eeacdp8XZCUV-10" value="Create" style="edgeLabel;html=1;align=center;verticalAlign=middle;resizable=0;points=[];" vertex="1" connectable="0" parent="dQhnRLkJOMdwWzvftfXV-96">
          <mxGeometry x="0.0167" y="-1" relative="1" as="geometry">
            <mxPoint as="offset" />
          </mxGeometry>
        </mxCell>
        <mxCell id="dQhnRLkJOMdwWzvftfXV-76" value="&lt;b&gt;Create or Join&lt;/b&gt;" style="rounded=1;whiteSpace=wrap;html=1;fillColor=#dae8fc;strokeColor=#6c8ebf;" parent="1" vertex="1">
          <mxGeometry x="400" y="340" width="120" height="60" as="geometry" />
        </mxCell>
        <mxCell id="dQhnRLkJOMdwWzvftfXV-98" style="edgeStyle=orthogonalEdgeStyle;rounded=0;orthogonalLoop=1;jettySize=auto;html=1;exitX=0.5;exitY=1;exitDx=0;exitDy=0;entryX=0.5;entryY=0;entryDx=0;entryDy=0;fillColor=#e1d5e7;strokeColor=#9673a6;strokeWidth=3;" parent="1" source="dQhnRLkJOMdwWzvftfXV-95" target="dQhnRLkJOMdwWzvftfXV-33" edge="1">
          <mxGeometry relative="1" as="geometry">
            <mxPoint x="360" y="590" as="targetPoint" />
          </mxGeometry>
        </mxCell>
        <mxCell id="dQhnRLkJOMdwWzvftfXV-104" value="Single" style="edgeLabel;html=1;align=center;verticalAlign=middle;resizable=0;points=[];" parent="dQhnRLkJOMdwWzvftfXV-98" vertex="1" connectable="0">
          <mxGeometry x="0.3604" y="1" relative="1" as="geometry">
            <mxPoint x="-1" y="-49" as="offset" />
          </mxGeometry>
        </mxCell>
        <mxCell id="dQhnRLkJOMdwWzvftfXV-99" style="edgeStyle=orthogonalEdgeStyle;rounded=0;orthogonalLoop=1;jettySize=auto;html=1;exitX=0;exitY=0.5;exitDx=0;exitDy=0;entryX=0.25;entryY=0;entryDx=0;entryDy=0;fillColor=#e1d5e7;strokeColor=#9673a6;strokeWidth=3;" parent="1" source="dQhnRLkJOMdwWzvftfXV-95" target="dQhnRLkJOMdwWzvftfXV-33" edge="1">
          <mxGeometry relative="1" as="geometry">
            <Array as="points">
              <mxPoint x="230" y="480" />
              <mxPoint x="230" y="630" />
              <mxPoint x="330" y="630" />
            </Array>
          </mxGeometry>
        </mxCell>
        <mxCell id="dQhnRLkJOMdwWzvftfXV-102" value="Timeless" style="edgeLabel;html=1;align=center;verticalAlign=middle;resizable=0;points=[];" parent="dQhnRLkJOMdwWzvftfXV-99" vertex="1" connectable="0">
          <mxGeometry x="-0.1083" y="1" relative="1" as="geometry">
            <mxPoint as="offset" />
          </mxGeometry>
        </mxCell>
        <mxCell id="dQhnRLkJOMdwWzvftfXV-100" style="edgeStyle=orthogonalEdgeStyle;rounded=0;orthogonalLoop=1;jettySize=auto;html=1;exitX=1;exitY=0.5;exitDx=0;exitDy=0;entryX=0.75;entryY=0;entryDx=0;entryDy=0;fillColor=#dae8fc;strokeColor=#6c8ebf;strokeWidth=3;" parent="1" source="dQhnRLkJOMdwWzvftfXV-95" target="dQhnRLkJOMdwWzvftfXV-33" edge="1">
          <mxGeometry relative="1" as="geometry">
            <Array as="points">
              <mxPoint x="480" y="480" />
              <mxPoint x="480" y="630" />
              <mxPoint x="390" y="630" />
            </Array>
          </mxGeometry>
        </mxCell>
        <mxCell id="dQhnRLkJOMdwWzvftfXV-105" value="Elimination" style="edgeLabel;html=1;align=center;verticalAlign=middle;resizable=0;points=[];" parent="dQhnRLkJOMdwWzvftfXV-100" vertex="1" connectable="0">
          <mxGeometry x="-0.6396" y="-1" relative="1" as="geometry">
            <mxPoint x="1" y="88" as="offset" />
          </mxGeometry>
        </mxCell>
        <mxCell id="dQhnRLkJOMdwWzvftfXV-95" value="&lt;b&gt;Create Room&lt;/b&gt;&lt;br&gt;Room creation scene with game mode options" style="rounded=1;whiteSpace=wrap;html=1;fillColor=#e1d5e7;strokeColor=#9673a6;" parent="1" vertex="1">
          <mxGeometry x="300" y="450" width="120" height="60" as="geometry" />
        </mxCell>
        <mxCell id="dQhnRLkJOMdwWzvftfXV-106" value="&lt;h4&gt;Blue is online&lt;/h4&gt;" style="rounded=0;whiteSpace=wrap;html=1;fillColor=#dae8fc;strokeColor=#6c8ebf;align=center;" parent="1" vertex="1">
          <mxGeometry x="20" y="160" width="120" height="60" as="geometry" />
        </mxCell>
        <mxCell id="dQhnRLkJOMdwWzvftfXV-107" value="&lt;h4&gt;Red is local&lt;/h4&gt;" style="rounded=0;whiteSpace=wrap;html=1;fillColor=#f8cecc;strokeColor=#b85450;align=center;" parent="1" vertex="1">
          <mxGeometry x="20" y="230" width="120" height="60" as="geometry" />
        </mxCell>
        <mxCell id="dQhnRLkJOMdwWzvftfXV-108" value="&lt;h4&gt;Purple is both&lt;/h4&gt;" style="rounded=0;whiteSpace=wrap;html=1;fillColor=#e1d5e7;strokeColor=#9673a6;align=center;" parent="1" vertex="1">
          <mxGeometry x="20" y="300" width="120" height="60" as="geometry" />
        </mxCell>
        <mxCell id="z4hqeZz_eeacdp8XZCUV-15" value="Rounded rectangles are scenes" style="rounded=1;whiteSpace=wrap;html=1;" vertex="1" parent="1">
          <mxGeometry x="20" y="80" width="120" height="60" as="geometry" />
        </mxCell>
      </root>
    </mxGraphModel>
  </diagram>
</mxfile>
